<?xml version="1.0" encoding="utf-8"?>
<!-- Generator: Adobe Illustrator 15.1.0, SVG Export Plug-In . SVG Version: 6.00 Build 0)  -->
<!DOCTYPE svg PUBLIC "-//W3C//DTD SVG 1.1//EN" "http://www.w3.org/Graphics/SVG/1.1/DTD/svg11.dtd">
<svg version="1.1" xmlns="http://www.w3.org/2000/svg" xmlns:xlink="http://www.w3.org/1999/xlink" x="0px" y="0px"
	 width="7104.479px" height="2176.003px" viewBox="0 0 7104.479 2176.003" enable-background="new 0 0 7104.479 2176.003"
	 xml:space="preserve">
<g id="Layer_2">
</g>
<g id="Layer_1">
	<g>
		<path fill-rule="evenodd" clip-rule="evenodd" fill="#ECB65C" d="M2958.471,1448.225c88.686-165.48,813.544-162.462,937.423,0
			C3730.124,1601.846,3091.635,1557.246,2958.471,1448.225z"/>
		<path fill-rule="evenodd" clip-rule="evenodd" fill="#ECB65C" d="M3368.84,0c112.668,171.683-198.516,276.302,0,466.775
			C3318.102,294.033,3607.585,123.409,3368.84,0z"/>
		<path fill-rule="evenodd" clip-rule="evenodd" fill="#ECB65C" d="M3567.347,64.39c96.572,171.687-190.504,285.262,0,466.767
			C3516.608,358.414,3803.405,195.838,3567.347,64.39z"/>
		<path fill-rule="evenodd" clip-rule="evenodd" fill="#ECB65C" d="M3153.124,91.218c96.572,171.678-187.783,270.937,0,466.766
			C3102.386,385.238,3386.508,195.838,3153.124,91.218z"/>
	</g>
	<path fill-rule="evenodd" clip-rule="evenodd" fill="#FFFFFF" d="M2748.359,1610.396c44.854,0,81.231,33.699,81.231,75.281
		c0,41.576-36.377,75.275-81.231,75.275c-44.874,0-81.231-33.699-81.231-75.275
		C2667.128,1644.096,2703.486,1610.396,2748.359,1610.396z M5439.287,1170.877c-40.947,0-74.854,11.105-101.762,33.322
		c-26.91,22.257-44.451,53.818-52.652,94.767h308.813c-8.174-39.776-25.732-71.046-52.625-93.887
		C5514.151,1182.274,5480.218,1170.877,5439.287,1170.877 M5963.924,1397.218c0,5.865-1.76,36.844-5.264,93.006h-666.764
		c14.039,36.261,37.428,64.05,70.184,83.329c32.757,19.324,73.715,28.962,122.836,28.962c42.106,0,77.477-5.281,106.146-15.799
		c28.652-10.522,59.963-28.67,93.869-54.407l207.039,208.822c-93.572,102.94-233.355,154.413-419.333,154.413
		c-115.812,0-217.585-21.377-305.31-64.048c-87.734-42.708-155.574-102.06-203.546-178.095
		c-47.944-76.036-71.927-161.417-71.927-256.184c0-95.903,23.686-181.576,71.047-257.023
		c47.389-75.47,112.29-134.247,194.762-176.357c82.471-42.117,175.18-63.169,278.131-63.169c97.074,0,185.68,19.302,265.797,57.896
		c80.146,38.604,143.881,95.347,191.259,170.188C5940.239,1203.61,5963.924,1293.101,5963.924,1397.218z M6579.842,1170.877
		c-40.947,0-74.854,11.105-101.763,33.322c-26.909,22.257-44.451,53.818-52.652,94.767h308.813
		c-8.174-39.776-25.733-71.046-52.625-93.887C6654.705,1182.274,6620.771,1170.877,6579.842,1170.877 M7104.479,1397.218
		c0,5.865-1.76,36.844-5.264,93.006h-666.764c14.038,36.261,37.427,64.05,70.184,83.329c32.756,19.324,73.714,28.962,122.835,28.962
		c42.107,0,77.478-5.281,106.147-15.799c28.652-10.522,59.963-28.67,93.868-54.407l207.04,208.822
		c-93.572,102.94-233.355,154.413-419.333,154.413c-115.812,0-217.585-21.377-305.31-64.048
		c-87.734-42.708-155.574-102.06-203.547-178.095c-47.943-76.036-71.926-161.417-71.926-256.184
		c0-95.903,23.686-181.576,71.047-257.023c47.388-75.47,112.289-134.247,194.762-176.357c82.471-42.117,175.18-63.169,278.13-63.169
		c97.075,0,185.681,19.302,265.798,57.896c80.145,38.604,143.881,95.347,191.258,170.188
		C7080.793,1203.61,7104.479,1293.101,7104.479,1397.218z M4293.525,1170.877c-40.931,0-74.864,11.105-101.754,33.322
		c-26.909,22.257-44.453,53.818-52.644,94.767h308.813c-8.198-39.776-25.743-71.046-52.652-93.887
		C4368.379,1182.274,4334.473,1170.877,4293.525,1170.877z M3486.412,970.856h208.792v255.932
		c-211.586-41.788-484.866-26.155-654.901,33.573h-69.743V970.856h131.593v-5.272c0-125.157,37.427-224.289,112.29-297.396
		c74.864-73.108,180.147-109.672,315.827-109.672c44.451,0,87.734,4.095,129.859,12.283c42.097,8.196,77.18,19.89,105.267,35.095
		l-94.749,275.473c-32.757-15.207-62.576-22.814-89.485-22.814c-29.236,0-52.338,9.067-69.313,27.197
		c-16.948,18.134-25.436,45.915-25.436,83.347V970.856z M2738.946,970.856h208.8v289.505h-196.521v243.443l-2.866-0.04
		c-108.429,0-196.315,81.442-196.315,181.913c0,100.47,87.886,181.908,196.315,181.908h2.866v10.391h-396.548v-617.615h-131.592
		V970.856h131.592v-5.272c0-125.157,37.446-224.289,112.301-297.396c74.862-73.108,180.147-109.672,315.835-109.672
		c44.451,0,87.725,4.095,129.841,12.283c42.116,8.196,77.207,19.89,105.266,35.095l-94.739,275.473
		c-32.757-15.207-62.577-22.814-89.487-22.814c-29.245,0-52.336,9.067-69.303,27.197c-16.967,18.134-25.446,45.915-25.446,83.347
		V970.856z M1628.284,1586.716c45.61,0,83.055-16.684,112.291-50.007c29.245-33.322,43.859-79.808,43.859-139.491
		c0-59.648-14.614-105.837-43.859-138.616c-29.236-32.734-66.68-49.121-112.291-49.121c-45.628,0-83.055,16.387-112.291,49.121
		c-29.245,32.779-43.876,78.968-43.876,138.616c0,59.684,14.631,106.169,43.876,139.491
		C1545.229,1570.032,1582.656,1586.716,1628.284,1586.716z M1628.284,1895.544c-106.443,0-202.082-21.377-286.879-64.048
		c-84.806-42.708-151.189-101.768-199.144-177.215c-47.963-75.447-71.944-161.165-71.944-257.063
		c0-95.903,23.981-181.576,71.944-257.023c47.955-75.47,114.338-134.247,199.144-176.357
		c84.797-42.117,180.436-63.169,286.879-63.169c107.612,0,203.824,21.052,288.622,63.169
		c84.815,42.111,150.912,100.888,198.281,176.357c47.38,75.447,71.055,161.12,71.055,257.023
		c0,95.898-23.675,181.616-71.055,257.063c-47.369,75.447-113.466,134.507-198.281,177.215
		C1832.108,1874.167,1735.896,1895.544,1628.284,1895.544z M3992.068,1816.744c-22.4,193.228-91.668,337.621-312.539,357.74
		c167.933,14.586,371.811-74.818,410.037-315.117c71.172,24.105,150.266,36.177,237.299,36.177
		c185.994,0,325.788-51.473,419.36-154.413l-207.04-208.822c-33.931,25.737-65.216,43.885-93.886,54.407
		c-28.652,10.518-64.05,15.799-106.154,15.799c-49.124,0-90.071-9.638-122.811-28.962c-32.757-19.279-56.146-47.068-70.184-83.329
		h666.736c3.521-56.162,5.264-87.141,5.264-93.006c0-104.117-23.685-193.607-71.046-268.466
		c-47.389-74.841-111.141-131.585-191.258-170.188c-80.143-38.594-168.732-57.896-265.826-57.896
		c-102.939,0-195.642,21.052-278.103,63.169c-82.472,42.111-147.401,100.888-194.762,176.357
		c-20.603,32.774-36.718,67.525-48.35,104.198c92.611,26.577,166.676,66.564,204.318,121.43
		c18.045,19.198,28.017,284.476,18.963,450.293l1.175,0.629H3992.068z M566.743,1895.544c-108.778,0-206.168-21.088-292.141-63.167
		c-85.983-42.125-153.24-101.18-201.786-177.215C24.278,1579.126,0,1493.116,0,1397.218c0-95.903,24.278-181.576,72.815-257.023
		c48.546-75.47,115.803-134.247,201.786-176.357c85.973-42.117,183.363-63.169,292.141-63.169
		c116.971,0,216.982,25.149,300.037,75.447c83.046,50.298,140.368,119.898,171.948,208.8l-307.051,150.894
		c-37.428-84.204-92.999-126.328-166.694-126.328c-46.786,0-85.677,16.387-116.683,49.121
		c-30.986,32.779-46.489,78.968-46.489,138.616c0,60.815,15.503,107.638,46.489,140.372c31.006,32.734,69.897,49.126,116.683,49.126
		c73.695,0,129.266-42.125,166.694-126.334l307.051,150.895c-31.58,88.901-88.902,158.524-171.948,208.822
		C783.725,1870.395,683.713,1895.544,566.743,1895.544z"/>
	<path fill-rule="evenodd" clip-rule="evenodd" fill="#E2E2E2" d="M3679.529,2174.484c155.483-61.489,250.781-174.32,259.601-361.01
		l-2.892-487.852c15.592,13.329,29.909,27.876,40.031,46.234c23.299,116.606,22.194,275.845,15.819,444.258
		C3979.477,2036.713,3864.752,2165.053,3679.529,2174.484"/>
</g>
</svg>
