<svg xmlns="http://www.w3.org/2000/svg" xmlns:xlink="http://www.w3.org/1999/xlink" x="0px" y="0px" width="2315.852px" height="844.964px" viewBox="0 0 2315.852 844.964" xml:space="preserve"><g id="Layer_2"/><g id="Layer_1">	<path fill-rule="evenodd" clip-rule="evenodd" fill="#3A896A" d="M2112.13,454.663c-15.9,0-29.066,4.313-39.516,12.939  c-10.449,8.643-17.261,20.898-20.445,36.799h119.915c-3.174-15.445-9.992-27.588-20.435-36.457  C2141.2,459.089,2128.023,454.663,2112.13,454.663 M2315.852,542.554c0,2.277-0.684,14.307-2.044,36.115h-258.911  c5.451,14.08,14.533,24.871,27.253,32.357c12.72,7.504,28.624,11.246,47.698,11.246c16.351,0,30.085-2.051,41.218-6.135  c11.126-4.086,23.284-11.133,36.45-21.127l80.396,81.088c-36.335,39.973-90.614,59.96-162.831,59.96  c-44.971,0-84.49-8.301-118.555-24.87c-34.068-16.584-60.411-39.631-79.039-69.156c-18.617-29.525-27.93-62.68-27.93-99.479  c0-37.24,9.197-70.508,27.588-99.805c18.401-29.306,43.604-52.129,75.628-68.481c32.024-16.354,68.024-24.529,108.001-24.529  c37.695,0,72.102,7.495,103.212,22.481c31.121,14.99,55.87,37.024,74.268,66.086  C2306.654,467.374,2315.852,502.124,2315.852,542.554z M1667.219,454.663c-15.894,0-29.07,4.313-39.512,12.939  c-10.449,8.643-17.262,20.898-20.442,36.799h119.915c-3.184-15.445-9.996-27.588-20.445-36.457  C1696.285,459.089,1683.119,454.663,1667.219,454.663z M1353.809,376.993h81.076v99.381  c-82.161-16.227-188.278-10.156-254.305,13.037h-27.082V376.993h51.099v-2.047c0-48.6,14.533-87.094,43.604-115.482  c29.07-28.389,69.953-42.587,122.639-42.587c17.261,0,34.068,1.59,50.426,4.77c16.347,3.183,29.97,7.724,40.876,13.628  l-36.792,106.969c-12.72-5.905-24.299-8.859-34.748-8.859c-11.353,0-20.323,3.521-26.915,10.561  c-6.581,7.042-9.877,17.829-9.877,32.364V376.993z M1063.56,376.993h81.079v112.418h-76.311v94.531l-1.113-0.016  c-42.104,0-76.231,31.625-76.231,70.639s34.127,70.637,76.231,70.637h1.113v4.035H914.345V489.411h-51.099V376.993h51.099v-2.047  c0-48.6,14.541-87.094,43.607-115.482c29.07-28.389,69.953-42.587,122.642-42.587c17.261,0,34.064,1.59,50.418,4.77  c16.354,3.183,29.98,7.724,40.876,13.628l-36.788,106.969c-12.72-5.905-24.299-8.859-34.749-8.859  c-11.356,0-20.323,3.521-26.911,10.561c-6.588,7.042-9.881,17.829-9.881,32.364V376.993z M632.279,616.138  c17.711,0,32.251-6.479,43.604-19.418c11.356-12.939,17.031-30.99,17.031-54.166c0-23.162-5.675-41.098-17.031-53.826  c-11.353-12.711-25.893-19.074-43.604-19.074c-17.718,0-32.251,6.363-43.604,19.074c-11.356,12.729-17.038,30.664-17.038,53.826  c0,23.176,5.682,41.227,17.038,54.166C600.028,609.659,614.561,616.138,632.279,616.138z M632.279,736.059  c-41.333,0-78.47-8.301-111.398-24.87c-32.931-16.584-58.708-39.518-77.33-68.814c-18.625-29.297-27.937-62.582-27.937-99.82  c0-37.24,9.312-70.508,27.937-99.805c18.621-29.306,44.398-52.129,77.33-68.481c32.928-16.354,70.065-24.529,111.398-24.529  c41.787,0,79.147,8.175,112.075,24.529c32.935,16.352,58.601,39.176,76.995,68.481c18.398,29.297,27.591,62.564,27.591,99.805  c0,37.238-9.193,70.523-27.591,99.82c-18.394,29.297-44.06,52.23-76.995,68.814C711.426,727.758,674.065,736.059,632.279,736.059z   M1550.16,705.46c-8.698,75.032-35.596,131.102-121.362,138.914c65.21,5.664,144.378-29.053,159.222-122.363  c27.637,9.36,58.35,14.048,92.146,14.048c72.224,0,126.507-19.987,162.842-59.96l-80.396-81.088  c-13.176,9.994-25.324,17.041-36.457,21.127c-11.126,4.084-24.871,6.135-41.221,6.135c-19.075,0-34.976-3.742-47.688-11.246  c-12.72-7.486-21.802-18.277-27.253-32.357h258.9c1.367-21.809,2.044-33.838,2.044-36.115c0-40.43-9.197-75.18-27.588-104.248  c-18.401-29.062-43.157-51.096-74.268-66.086c-31.12-14.986-65.521-22.481-103.223-22.481c-39.973,0-75.97,8.175-107.99,24.529  c-32.024,16.352-57.237,39.176-75.628,68.481c-8,12.727-14.258,26.221-18.774,40.461c35.962,10.32,64.722,25.848,79.339,47.152  c7.007,7.455,10.879,110.465,7.363,174.854l0.456,0.244H1550.16z M1067.215,625.333c17.417,0,31.543,13.086,31.543,29.232  c0,16.145-14.125,29.23-31.543,29.23c-17.425,0-31.543-13.086-31.543-29.23C1035.672,638.419,1049.791,625.333,1067.215,625.333z   M220.072,736.059c-42.24,0-80.057-8.188-113.441-24.528c-33.388-16.357-59.504-39.289-78.355-68.814  C9.427,613.19,0,579.792,0,542.554c0-37.24,9.427-70.508,28.275-99.805c18.851-29.306,44.967-52.129,78.355-68.481  c33.384-16.354,71.202-24.529,113.441-24.529c45.421,0,84.256,9.766,116.507,29.297c32.248,19.531,54.506,46.558,66.769,81.079  l-119.231,58.594c-14.534-32.697-36.112-49.055-64.729-49.055c-18.167,0-33.269,6.363-45.309,19.074  c-12.032,12.729-18.052,30.664-18.052,53.826c0,23.615,6.02,41.797,18.052,54.508c12.04,12.711,27.142,19.076,45.309,19.076  c28.617,0,50.195-16.357,64.729-49.057l119.231,58.594c-12.263,34.521-34.521,61.557-66.769,81.088  C304.328,726.293,265.493,736.059,220.072,736.059z"/>	<path fill-rule="evenodd" clip-rule="evenodd" fill="#E6E7E8" d="M1428.798,844.374c60.376-23.877,97.381-67.69,100.806-140.184  l-1.123-189.438c6.055,5.176,11.614,10.824,15.545,17.953c9.047,45.279,8.618,107.113,6.143,172.51  C1545.271,790.876,1500.722,840.712,1428.798,844.374"/>	<path fill-rule="evenodd" clip-rule="evenodd" fill="#ECB65C" d="M1148.804,562.36c34.438-64.258,315.907-63.086,364.011,0  C1448.444,622.013,1200.513,604.694,1148.804,562.36z"/>	<path fill-rule="evenodd" clip-rule="evenodd" fill="#ECB65C" d="M1308.154,0c43.75,66.666-77.086,107.291,0,181.253  C1288.452,114.176,1400.861,47.921,1308.154,0z"/>	<path fill-rule="evenodd" clip-rule="evenodd" fill="#ECB65C" d="M1385.236,25.003c37.5,66.667-73.975,110.77,0,181.25  C1365.534,139.176,1476.9,76.046,1385.236,25.003z"/>	<path fill-rule="evenodd" clip-rule="evenodd" fill="#ECB65C" d="M1224.39,35.421c37.5,66.665-72.918,105.208,0,181.25  C1204.688,149.592,1315.015,76.046,1224.39,35.421z"/></g></svg>